<svg width="840" height="120" viewBox="0 0 840 120" fill="none" xmlns="http://www.w3.org/2000/svg">
<path d="M50.87 105V89.66C50.87 78.09 49.44 74.71 45.02 65.09L21.88 14.65H5.5L35.14 79.13V105H50.87ZM61.14 58.33L80.38 14.65H64.39L45.15 58.33H61.14ZM225.46 106.3C232.74 106.3 238.72 102.92 242.88 96.55L243.66 105H257.96V14.65H242.49V47.28C238.59 41.43 232.87 38.31 226.11 38.31C211.16 38.31 200.76 50.92 200.76 72.76C200.76 94.34 210.9 106.3 225.46 106.3ZM320.49 100.58V87.97C315.68 91.22 307.62 94.08 300.08 94.08C288.77 94.08 284.48 88.75 283.83 77.83H321.14V69.64C321.14 46.89 311.13 38.31 295.66 38.31C276.81 38.31 267.84 52.74 267.84 72.5C267.84 95.25 279.02 106.3 298.78 106.3C308.66 106.3 315.94 103.7 320.49 100.58ZM125.88 60.41C125.88 44.55 117.82 38.57 101.44 38.57C91.3 38.57 83.11 42.86 78.43 46.24V59.63C83.37 55.6 90.91 50.92 99.62 50.92C107.03 50.92 110.41 53.52 110.41 60.54V64.7H107.94C84.28 64.7 73.75 72.37 73.75 86.02C73.75 98.63 81.81 105.91 93.77 105.91C102.87 105.91 106.77 102.92 109.76 99.8H110.41C110.54 101.49 111.06 103.7 111.58 105H126.66C126.14 99.67 125.88 94.34 125.88 89.01V60.41ZM153.96 58.07C156.82 54.56 161.37 51.57 166.96 51.57C172.42 51.57 174.89 53.91 174.89 58.85V105H190.36V57.29C190.36 44.29 185.16 38.57 172.55 38.57C163.32 38.57 157.86 41.95 154.74 45.07H153.96L153.57 39.61H138.49V105H153.96V58.07ZM368.07 105H385.49L364.17 71.33L382.63 39.61H367.16L355.98 59.37L343.5 39.61H326.08L345.84 70.94L325.3 105H341.03L354.16 82.9L368.07 105ZM230.01 50.53C238.33 50.53 242.49 57.16 242.49 72.24C242.49 87.45 238.07 94.08 229.36 94.08C220.91 94.08 216.75 87.58 216.75 72.76C216.75 57.29 221.17 50.53 230.01 50.53ZM295.4 50.53C303.07 50.53 305.41 56.9 305.41 65.09V66.39H283.83C284.22 55.99 287.99 50.53 295.4 50.53ZM110.41 89.4C108.46 92.26 104.82 94.6 99.36 94.6C92.86 94.6 89.61 90.83 89.61 85.11C89.61 77.57 94.94 74.97 108.2 74.97H110.41V89.4Z" fill="white"/>
<path fill-rule="evenodd" clip-rule="evenodd" d="M519.4 60C519.4 87.3 497.3 109.4 470 109.4C462.856 109.4 457.521 106.718 454.853 103.466C452.185 100.213 451.434 94.891 452.353 87.2031L468.253 84.0491C482.78 81.388 490.784 73.3059 493.65 58.8173C494.001 56.7891 494.401 54.7609 494.781 52.8384C494.936 52.0515 495.088 51.2823 495.231 50.538C495.664 48.1862 496.082 45.9513 496.466 43.9015C496.87 41.7419 497.235 39.7879 497.539 38.1192C499.166 28.6998 497.844 21.7453 494.185 16.9073C509.239 25.3681 519.4 41.4886 519.4 60ZM470 10.6C442.7 10.6 420.6 32.7 420.6 60C420.6 78.5114 430.761 94.6319 445.815 103.093C442.156 98.2546 440.834 91.3002 442.461 81.8808C442.81 79.9637 443.228 77.7042 443.695 75.183C444.02 73.4267 444.368 71.5435 444.734 69.5605C444.877 68.8163 445.029 68.0471 445.184 67.2602C445.564 65.3377 445.964 63.3095 446.315 61.2813C449.082 46.6941 457.086 38.612 471.613 35.9508L487.647 32.7969C488.566 25.109 487.815 19.7867 485.147 16.5341C482.479 13.2816 477.144 10.6 470 10.6ZM530 60C530 93.1 503.1 120 470 120C436.9 120 410 93.1 410 60C410 26.9 436.9 0 470 0C503.1 0 530 26.9 530 60ZM485.744 43.8358L473.688 46.2013C463.411 48.1726 458.667 52.9035 456.691 63.154C456.231 65.4456 455.831 67.6188 455.444 69.7194C455.332 70.3293 455.221 70.933 455.11 71.5318C454.813 73.1088 454.517 74.6858 454.22 76.1642L466.178 73.7987C476.455 71.8275 481.298 67.0965 483.275 56.846C483.709 54.6815 484.109 52.5115 484.509 50.3414C484.91 48.1711 485.31 46.0008 485.744 43.8358Z" fill="white"/>
<path d="M589.78 106.3C599.53 106.3 606.16 102.79 610.19 100.06V87.45C604.99 91.22 599.27 94.08 590.95 94.08C576.65 94.08 569.89 82.51 569.89 59.89C569.89 36.62 576.39 25.57 591.73 25.57C598.88 25.57 605.51 28.69 610.19 31.68V19.07C606.03 16.08 599.27 13.35 590.95 13.35C566.9 13.35 553.9 31.03 553.9 59.89C553.9 89.53 567.42 106.3 589.78 106.3Z" fill="white"/>
<path d="M636.081 14.65H620.611V105H636.081V14.65Z" fill="white"/>
<path d="M675.309 38.31C658.279 38.31 646.449 50.4 646.449 72.37C646.449 94.21 658.279 106.3 675.309 106.3C692.339 106.3 704.169 94.21 704.169 72.24C704.169 50.4 692.339 38.31 675.309 38.31ZM675.309 94.08C666.729 94.08 662.439 87.45 662.439 72.37C662.439 57.16 666.729 50.53 675.309 50.53C683.889 50.53 688.179 57.16 688.179 72.24C688.179 87.45 683.889 94.08 675.309 94.08Z" fill="white"/>
<path d="M750.307 86.54C747.447 90.05 742.897 93.04 737.307 93.04C731.847 93.04 729.377 90.7 729.377 85.76V39.61H713.907V87.32C713.907 100.32 719.107 106.04 731.717 106.04C740.947 106.04 746.407 102.66 749.527 99.54H750.307L750.697 105H765.777V39.61H750.307V86.54Z" fill="white"/>
<path d="M800.895 106.3C808.175 106.3 814.155 102.92 818.315 96.55L819.095 105H833.395V14.65H817.925V47.28C814.025 41.43 808.305 38.31 801.545 38.31C786.595 38.31 776.195 50.92 776.195 72.76C776.195 94.34 786.335 106.3 800.895 106.3ZM805.445 50.53C813.765 50.53 817.925 57.16 817.925 72.24C817.925 87.45 813.505 94.08 804.795 94.08C796.345 94.08 792.185 87.58 792.185 72.76C792.185 57.29 796.605 50.53 805.445 50.53Z" fill="white"/>
</svg>
