<svg width="390" height="241" viewBox="0 0 390 241" fill="none" xmlns="http://www.w3.org/2000/svg">
<path d="M89.78 227.3C99.53 227.3 106.16 223.79 110.19 221.06V208.45C104.99 212.22 99.27 215.08 90.95 215.08C76.65 215.08 69.89 203.51 69.89 180.89C69.89 157.62 76.39 146.57 91.73 146.57C98.88 146.57 105.51 149.69 110.19 152.68V140.07C106.03 137.08 99.27 134.35 90.95 134.35C66.9 134.35 53.9 152.03 53.9 180.89C53.9 210.53 67.42 227.3 89.78 227.3Z" fill="white"/>
<path d="M136.081 135.65H120.611V226H136.081V135.65Z" fill="white"/>
<path d="M175.309 159.31C158.279 159.31 146.449 171.4 146.449 193.37C146.449 215.21 158.279 227.3 175.309 227.3C192.339 227.3 204.169 215.21 204.169 193.24C204.169 171.4 192.339 159.31 175.309 159.31ZM175.309 215.08C166.729 215.08 162.439 208.45 162.439 193.37C162.439 178.16 166.729 171.53 175.309 171.53C183.889 171.53 188.179 178.16 188.179 193.24C188.179 208.45 183.889 215.08 175.309 215.08Z" fill="white"/>
<path d="M250.307 207.54C247.447 211.05 242.897 214.04 237.307 214.04C231.847 214.04 229.377 211.7 229.377 206.76V160.61H213.907V208.32C213.907 221.32 219.107 227.04 231.717 227.04C240.947 227.04 246.407 223.66 249.527 220.54H250.307L250.697 226H265.777V160.61H250.307V207.54Z" fill="white"/>
<path d="M300.895 227.3C308.175 227.3 314.155 223.92 318.315 217.55L319.095 226H333.395V135.65H317.925V168.28C314.025 162.43 308.305 159.31 301.545 159.31C286.595 159.31 276.195 171.92 276.195 193.76C276.195 215.34 286.335 227.3 300.895 227.3ZM305.445 171.53C313.765 171.53 317.925 178.16 317.925 193.24C317.925 208.45 313.505 215.08 304.795 215.08C296.345 215.08 292.185 208.58 292.185 193.76C292.185 178.29 296.605 171.53 305.445 171.53Z" fill="white"/>
<path d="M50.87 105V89.66C50.87 78.09 49.44 74.71 45.02 65.09L21.88 14.65H5.5L35.14 79.13V105H50.87ZM61.14 58.33L80.38 14.65H64.39L45.15 58.33H61.14ZM225.46 106.3C232.74 106.3 238.72 102.92 242.88 96.55L243.66 105H257.96V14.65H242.49V47.28C238.59 41.43 232.87 38.31 226.11 38.31C211.16 38.31 200.76 50.92 200.76 72.76C200.76 94.34 210.9 106.3 225.46 106.3ZM320.49 100.58V87.97C315.68 91.22 307.62 94.08 300.08 94.08C288.77 94.08 284.48 88.75 283.83 77.83H321.14V69.64C321.14 46.89 311.13 38.31 295.66 38.31C276.81 38.31 267.84 52.74 267.84 72.5C267.84 95.25 279.02 106.3 298.78 106.3C308.66 106.3 315.94 103.7 320.49 100.58ZM125.88 60.41C125.88 44.55 117.82 38.57 101.44 38.57C91.3 38.57 83.11 42.86 78.43 46.24V59.63C83.37 55.6 90.91 50.92 99.62 50.92C107.03 50.92 110.41 53.52 110.41 60.54V64.7H107.94C84.28 64.7 73.75 72.37 73.75 86.02C73.75 98.63 81.81 105.91 93.77 105.91C102.87 105.91 106.77 102.92 109.76 99.8H110.41C110.54 101.49 111.06 103.7 111.58 105H126.66C126.14 99.67 125.88 94.34 125.88 89.01V60.41ZM153.96 58.07C156.82 54.56 161.37 51.57 166.96 51.57C172.42 51.57 174.89 53.91 174.89 58.85V105H190.36V57.29C190.36 44.29 185.16 38.57 172.55 38.57C163.32 38.57 157.86 41.95 154.74 45.07H153.96L153.57 39.61H138.49V105H153.96V58.07ZM368.07 105H385.49L364.17 71.33L382.63 39.61H367.16L355.98 59.37L343.5 39.61H326.08L345.84 70.94L325.3 105H341.03L354.16 82.9L368.07 105ZM230.01 50.53C238.33 50.53 242.49 57.16 242.49 72.24C242.49 87.45 238.07 94.08 229.36 94.08C220.91 94.08 216.75 87.58 216.75 72.76C216.75 57.29 221.17 50.53 230.01 50.53ZM295.4 50.53C303.07 50.53 305.41 56.9 305.41 65.09V66.39H283.83C284.22 55.99 287.99 50.53 295.4 50.53ZM110.41 89.4C108.46 92.26 104.82 94.6 99.36 94.6C92.86 94.6 89.61 90.83 89.61 85.11C89.61 77.57 94.94 74.97 108.2 74.97H110.41V89.4Z" fill="white"/>
</svg>
